<svg width="36" height="37" viewBox="0 0 36 37" xmlns="http://www.w3.org/2000/svg">
<path fill-rule="evenodd" clip-rule="evenodd" d="M16.3337 16.0001C15.8734 16.0001 15.5003 16.3732 15.5003 16.8334V24.3334C15.5003 24.7937 15.8734 25.1667 16.3337 25.1667H23.8337C24.2939 25.1667 24.667 24.7937 24.667 24.3334V16.8334C24.667 16.3732 24.2939 16.0001 23.8337 16.0001H16.3337ZM13.8337 16.8334C13.8337 15.4527 14.9529 14.3334 16.3337 14.3334H23.8337C25.2144 14.3334 26.3337 15.4527 26.3337 16.8334V24.3334C26.3337 25.7141 25.2144 26.8334 23.8337 26.8334H16.3337C14.9529 26.8334 13.8337 25.7141 13.8337 24.3334V16.8334Z"/>
<path fill-rule="evenodd" clip-rule="evenodd" d="M12.167 11.8334C11.7068 11.8334 11.3337 12.2065 11.3337 12.6667V20.1667C11.3337 20.627 11.7068 21.0001 12.167 21.0001C12.6272 21.0001 13.0003 21.3732 13.0003 21.8334C13.0003 22.2937 12.6272 22.6667 12.167 22.6667C10.7863 22.6667 9.66699 21.5475 9.66699 20.1667V12.6667C9.66699 11.286 10.7863 10.1667 12.167 10.1667H19.667C21.0477 10.1667 22.167 11.286 22.167 12.6667C22.167 13.127 21.7939 13.5001 21.3337 13.5001C20.8734 13.5001 20.5003 13.127 20.5003 12.6667C20.5003 12.2065 20.1272 11.8334 19.667 11.8334H12.167Z"/>
</svg>
