<svg width="36" height="37" viewBox="0 0 36 37" xmlns="http://www.w3.org/2000/svg">
<path d="M9.75 13.9166C9.75 13.4103 10.1604 12.9999 10.6667 12.9999H25.3333C25.8396 12.9999 26.25 13.4103 26.25 13.9166C26.25 14.4228 25.8396 14.8333 25.3333 14.8333H10.6667C10.1604 14.8333 9.75 14.4228 9.75 13.9166Z" />
<path fill-rule="evenodd" clip-rule="evenodd" d="M11.5833 14.8333H13.4167V23.8166C13.4167 24.3451 13.4174 24.6863 13.4386 24.9461C13.4589 25.1951 13.4935 25.2874 13.5166 25.3327C13.6045 25.5052 13.7447 25.6455 13.9172 25.7333C13.9625 25.7564 14.0548 25.791 14.3038 25.8113C14.5636 25.8325 14.9048 25.8333 15.4333 25.8333H20.5667C21.0952 25.8333 21.4364 25.8325 21.6962 25.8113C21.9452 25.791 22.0375 25.7564 22.0828 25.7333C22.2553 25.6455 22.3955 25.5052 22.4834 25.3327C22.5065 25.2874 22.5411 25.1951 22.5614 24.9461C22.5826 24.6863 22.5833 24.3451 22.5833 23.8166V14.8333H24.4167V23.8519C24.4167 24.3351 24.4167 24.752 24.3886 25.0954C24.359 25.4578 24.2937 25.8182 24.1169 26.1651C23.8533 26.6825 23.4326 27.1032 22.9151 27.3669C22.5683 27.5436 22.2078 27.609 21.8454 27.6386C21.5021 27.6666 21.0852 27.6666 20.602 27.6666H15.398C14.9148 27.6666 14.4979 27.6666 14.1546 27.6386C13.7922 27.609 13.4317 27.5436 13.0849 27.3669C12.5674 27.1032 12.1467 26.6825 11.8831 26.1651C11.7063 25.8182 11.641 25.4578 11.6114 25.0954C11.5833 24.752 11.5833 24.3351 11.5833 23.8519L11.5833 14.8333Z" />
<path d="M15.25 17.5833C15.25 17.077 15.6604 16.6666 16.1667 16.6666C16.6729 16.6666 17.0833 17.077 17.0833 17.5833V23.0833C17.0833 23.5895 16.6729 23.9999 16.1667 23.9999C15.6604 23.9999 15.25 23.5895 15.25 23.0833V17.5833Z" />
<path d="M18.9167 17.5833C18.9167 17.077 19.3271 16.6666 19.8333 16.6666C20.3396 16.6666 20.75 17.077 20.75 17.5833V23.0833C20.75 23.5895 20.3396 23.9999 19.8333 23.9999C19.3271 23.9999 18.9167 23.5895 18.9167 23.0833V17.5833Z" />
<path fill-rule="evenodd" clip-rule="evenodd" d="M17.054 9.33325H18.946C19.3481 9.33324 19.695 9.33323 19.9822 9.35282C20.2845 9.37345 20.5869 9.41883 20.8857 9.54258C21.5595 9.82169 22.0949 10.357 22.374 11.0309C22.4978 11.3296 22.5431 11.6321 22.5638 11.9344C22.5834 12.2216 22.5833 12.5685 22.5833 12.9706V12.9999H20.75C20.75 12.5603 20.7495 12.2764 20.7347 12.0592C20.7204 11.8502 20.696 11.7706 20.6802 11.7325C20.5872 11.5079 20.4087 11.3294 20.1841 11.2364C20.146 11.2206 20.0664 11.1962 19.8574 11.1819C19.6402 11.1671 19.3563 11.1666 18.9167 11.1666H17.0833C16.6437 11.1666 16.3598 11.1671 16.1426 11.1819C15.9336 11.1962 15.854 11.2206 15.8159 11.2364C15.5913 11.3294 15.4128 11.5079 15.3198 11.7325C15.304 11.7706 15.2796 11.8502 15.2653 12.0592C15.2505 12.2764 15.25 12.5603 15.25 12.9999H13.4167L13.4167 12.9706C13.4167 12.5685 13.4166 12.2216 13.4362 11.9344C13.4569 11.6321 13.5022 11.3296 13.626 11.0309C13.9051 10.357 14.4405 9.82169 15.1143 9.54258C15.4131 9.41883 15.7155 9.37345 16.0178 9.35282C16.305 9.33323 16.6519 9.33324 17.054 9.33325Z"/>
</svg>
