<svg width="36" height="37" viewBox="0 0 36 37" xmlns="http://www.w3.org/2000/svg">
<path fill-rule="evenodd" clip-rule="evenodd" d="M21.3902 10.76C22.0896 10.4133 22.9108 10.4133 23.6103 10.76C23.9818 10.944 24.3029 11.266 24.6743 11.6384L24.7562 11.7204L24.8381 11.8022C25.2105 12.1736 25.5325 12.4948 25.7166 12.8663C26.0632 13.5657 26.0632 14.3869 25.7166 15.0863C25.5325 15.4579 25.2105 15.779 24.8381 16.1504L24.7562 16.2322L14.9514 26.037L14.9374 26.0512C14.8859 26.1033 14.7796 26.2111 14.6474 26.2921C14.5356 26.3606 14.4137 26.4112 14.2861 26.4418C14.1354 26.478 13.984 26.4769 13.9107 26.4764L13.8908 26.4763H11.5002L11.4809 26.4763C11.3817 26.4764 11.2631 26.4764 11.1587 26.4679C11.0377 26.458 10.8644 26.4326 10.6828 26.3401C10.4475 26.2202 10.2563 26.029 10.1365 25.7938C10.0439 25.6122 10.0186 25.4389 10.0087 25.3178C10.0002 25.2134 10.0002 25.0949 10.0002 24.9956L10.0002 22.5858L10.0001 22.5658C9.99964 22.4925 9.99859 22.3412 10.0348 22.1904C10.0654 22.0629 10.1159 21.941 10.1844 21.8291C10.2654 21.6969 10.3732 21.5906 10.4254 21.5392L10.4396 21.5251L20.2443 11.7204L20.3261 11.6384C20.6975 11.266 21.0187 10.944 21.3902 10.76ZM22.8703 12.2533C22.6371 12.1378 22.3634 12.1378 22.1302 12.2533C22.0386 12.2987 21.9248 12.3969 21.4228 12.8989L21.1788 13.143L20.0002 14.3215L11.6669 22.6548V24.8096H13.8217L22.1551 16.4763L23.3336 15.2978L23.5777 15.0537C24.0796 14.5518 24.1778 14.438 24.2232 14.3463C24.3388 14.1132 24.3388 13.8394 24.2232 13.6063C24.1778 13.5146 24.0796 13.4009 23.5777 12.8989C23.0757 12.3969 22.9619 12.2987 22.8703 12.2533ZM23.3336 15.2978L22.1551 16.4763L20.0002 14.3215L21.1788 13.143L23.3336 15.2978Z"/>
</svg>
