<svg width="36" height="37" viewBox="0 0 36 37" xmlns="http://www.w3.org/2000/svg">
<path d="M24.7325 10.2338C24.9442 10.16 25.1719 10.146 25.3909 10.1948C25.6143 10.2446 25.819 10.3568 25.9809 10.5187C26.1023 10.6401 26.1957 10.7856 26.2559 10.9451L26.3048 11.1087L26.3308 11.2771C26.3437 11.4424 26.3205 11.6086 26.2657 11.7662L26.2673 11.767L21.3926 26.0151C21.3127 26.2482 21.1632 26.4519 20.9646 26.5978C20.7658 26.7436 20.5266 26.8258 20.2802 26.8321C20.0338 26.8384 19.7911 26.769 19.5852 26.6336C19.405 26.515 19.2601 26.3507 19.1653 26.1583L19.1278 26.0737L16.7434 20.1264L16.7157 20.0654C16.6844 20.0057 16.6439 19.9512 16.5961 19.9034C16.5324 19.8399 16.4566 19.7896 16.3731 19.7561L10.4258 17.3717C10.1971 17.2799 10.0014 17.1203 9.86595 16.9143C9.73051 16.7084 9.66112 16.4657 9.66738 16.2193L9.67389 16.1274C9.69569 15.9138 9.77409 15.7089 9.90176 15.5349C10.0476 15.3363 10.2514 15.1868 10.4844 15.1069L24.7325 10.2322V10.2338ZM12.1918 16.2836L16.9932 18.2091C17.2857 18.3262 17.5507 18.5017 17.7737 18.7242C17.9965 18.9467 18.172 19.2118 18.2896 19.5038L18.2904 19.5047L20.2151 24.3069L24.3874 12.1113L12.1918 16.2836Z"/>
<path d="M24.9115 10.4096C25.237 10.0842 25.7645 10.0842 26.0899 10.4096C26.4153 10.735 26.4153 11.2626 26.0899 11.588L17.7566 19.9213C17.4311 20.2468 16.9036 20.2468 16.5782 19.9213C16.2528 19.5959 16.2528 19.0684 16.5782 18.7429L24.9115 10.4096Z"/>
</svg>
